HIERARCHY
ROOT Hips
{
	OFFSET 0.000000 0.000000 0.000000
	CHANNELS 6 Xposition Yposition Zposition Zrotation Yrotation Xrotation 
	JOINT LHipJoint
	{
		OFFSET 0.000000 0.000000 0.000000
		CHANNELS 3 Zrotation Yrotation Xrotation
		JOINT LeftUpLeg
		{
			OFFSET 1.363060 -1.794630 0.839290
			CHANNELS 3 Zrotation Yrotation Xrotation
			JOINT LeftLeg
			{
				OFFSET 2.448110 -6.726130 0.000000
				CHANNELS 3 Zrotation Yrotation Xrotation
				JOINT LeftFoot
				{
					OFFSET 2.562200 -7.039590 0.000000
					CHANNELS 3 Zrotation Yrotation Xrotation
					JOINT LeftToeBase
					{
						OFFSET 0.157640 -0.433110 2.322550
						CHANNELS 3 Zrotation Yrotation Xrotation
						End Site
						{
							OFFSET 0.000000 0.000000 0.000000
						}
					}
				}
			}
		}
	}
	JOINT RHipJoint
	{
		OFFSET 0.000000 0.000000 0.000000
		CHANNELS 3 Zrotation Yrotation Xrotation
		JOINT RightUpLeg
		{
			OFFSET -1.305520 -1.794630 0.839290
			CHANNELS 3 Zrotation Yrotation Xrotation
			JOINT RightLeg
			{
				OFFSET -2.542530 -6.985550 0.000000
				CHANNELS 3 Zrotation Yrotation Xrotation
				JOINT RightFoot
				{
					OFFSET -2.568260 -7.056230 0.000000
					CHANNELS 3 Zrotation Yrotation Xrotation
					JOINT RightToeBase
					{
						OFFSET -0.164730 -0.452590 2.363150
						CHANNELS 3 Zrotation Yrotation Xrotation
						End Site
						{
							OFFSET 0.000000 0.000000 0.000000
						}
					}
				}
			}
		}
	}
	JOINT LowerBack
	{
		OFFSET 0.000000 0.000000 0.000000
		CHANNELS 3 Zrotation Yrotation Xrotation
		JOINT Spine
		{
			OFFSET 0.028270 2.035590 -0.193380
			CHANNELS 3 Zrotation Yrotation Xrotation
			JOINT Spine1
			{
				OFFSET 0.056720 2.048850 -0.042750
				CHANNELS 3 Zrotation Yrotation Xrotation
				JOINT Neck
				{
					OFFSET 0.000000 0.000000 0.000000
					CHANNELS 3 Zrotation Yrotation Xrotation
					JOINT Neck1
					{
						OFFSET -0.054170 1.746240 0.172020
						CHANNELS 3 Zrotation Yrotation Xrotation
						JOINT Head
						{
							OFFSET 0.104070 1.761360 -0.123970
							CHANNELS 3 Zrotation Yrotation Xrotation
							End Site
							{
								OFFSET 0.000000 0.000000 0.000000
							}
						}
					}
				}
				JOINT LeftShoulder
				{
					OFFSET 0.000000 0.000000 0.000000
					CHANNELS 3 Zrotation Yrotation Xrotation
					JOINT LeftArm
					{
						OFFSET 3.362410 1.200890 -0.311210
						CHANNELS 3 Zrotation Yrotation Xrotation
						JOINT LeftForeArm
						{
							OFFSET 4.983000 -0.000000 -0.000000
							CHANNELS 3 Zrotation Yrotation Xrotation
							JOINT LeftHand
							{
								OFFSET 3.483560 -0.000000 -0.000000
								CHANNELS 3 Zrotation Yrotation Xrotation
								JOINT LeftFingerBase
								{
									OFFSET 0.000000 0.000000 0.000000
									CHANNELS 3 Zrotation Yrotation Xrotation
									JOINT LeftHandIndex1
									{
										OFFSET 0.715260 -0.000000 -0.000000
										CHANNELS 3 Zrotation Yrotation Xrotation
										End Site
										{
											OFFSET 0.000000 0.000000 0.000000
										}
									}
								}
								JOINT LThumb
								{
									OFFSET 0.000000 0.000000 0.000000
									CHANNELS 3 Zrotation Yrotation Xrotation
									End Site
									{
										OFFSET 0.000000 0.000000 0.000000
									}
								}
							}
						}
					}
				}
				JOINT RightShoulder
				{
					OFFSET 0.000000 0.000000 0.000000
					CHANNELS 3 Zrotation Yrotation Xrotation
					JOINT RightArm
					{
						OFFSET -3.136600 1.374050 -0.404650
						CHANNELS 3 Zrotation Yrotation Xrotation
						JOINT RightForeArm
						{
							OFFSET -5.241900 -0.000000 -0.000000
							CHANNELS 3 Zrotation Yrotation Xrotation
							JOINT RightHand
							{
								OFFSET -3.444170 -0.000000 -0.000000
								CHANNELS 3 Zrotation Yrotation Xrotation
								JOINT RightFingerBase
								{
									OFFSET 0.000000 0.000000 0.000000
									CHANNELS 3 Zrotation Yrotation Xrotation
									JOINT RightHandIndex1
									{
										OFFSET -0.622530 -0.000000 -0.000000
										CHANNELS 3 Zrotation Yrotation Xrotation
										End Site
										{
											OFFSET 0.000000 0.000000 0.000000
										}
									}
								}
								JOINT RThumb
								{
									OFFSET 0.000000 0.000000 0.000000
									CHANNELS 3 Zrotation Yrotation Xrotation
									End Site
									{
										OFFSET 0.000000 0.000000 0.000000
									}
								}
							}
						}
					}
				}
			}
		}
	}
}
MOTION
Frames: 4
Frame Time: 0.008333
10.613647 16.111997 27.050926 -177.288365 1.853208 -164.205771 6.180107 -0.467737 -1.578654 -21.218732 -1.234892 -45.078913 8.268573 20.303378 60.058069 2.695672 -0.409066 -22.380289 1.582500 -7.936200 -22.520400 -7.736410 -0.666946 -0.083365 27.539335 10.274358 -40.626659 -7.588444 -20.659056 60.608060 -0.705800 -9.456718 -28.223175 -0.009900 0.643100 -1.767200 0.921987 -0.677035 17.711650 5.392216 -1.053656 10.472516 -3.144859 0.098537 -21.081781 -8.225929 0.295389 -22.028562 13.489475 1.720306 -7.878254 2.685300 0.609600 -1.148500 0.903717 -11.460873 2.285524 -54.810238 39.026792 -43.114319 32.401913 -33.124516 -8.430423 1.564101 1.456598 1.418742 16.687512 -23.142863 -6.519800 -7.125000 0.000000 0.000000 -8.752900 4.525400 8.132400 -1.553516 10.473216 0.548502 47.451695 -51.312655 -14.134958 -23.856302 25.403663 -7.334564 0.318539 -1.669983 28.658170 -12.651638 -65.750248 12.506900 7.125000 0.000000 0.000000 97.128700 76.060500 111.593700 
10.627916 16.029865 27.039674 -177.746543 1.591492 -163.847957 6.302230 -0.491425 -1.581731 -21.713777 -1.431451 -46.140048 8.725700 20.631142 61.409803 2.780786 -0.498989 -22.911100 1.740500 -8.303200 -23.638800 -7.904781 -0.625196 -0.088943 27.040555 10.358289 -41.692667 -8.143586 -21.024623 62.170460 -0.850240 -9.381427 -28.808743 -0.006600 0.526000 -1.445300 0.435008 -0.501458 17.373712 4.918547 -0.928304 11.019572 -2.875306 0.221215 -20.514644 -8.107929 -0.117340 -22.807989 13.574393 1.363980 -8.521121 2.723800 0.455700 -1.230400 0.904884 -11.178488 2.379348 -57.296504 36.513379 -42.924101 32.312882 -32.996932 -8.451904 1.589970 1.417736 1.812900 16.950486 -23.960433 -6.827700 -7.125000 0.000000 0.000000 -8.657200 3.681000 8.179100 -1.486937 10.117680 0.983861 51.410885 -49.078943 -15.268914 -23.838821 25.013450 -7.401790 0.359184 -1.627700 28.935044 -13.054306 -66.215470 12.943700 7.125000 0.000000 0.000000 99.287000 76.033100 113.761700 
10.649145 15.938916 27.047330 -177.948956 1.211726 -163.222068 6.519034 -0.547439 -1.657658 -21.908548 -1.724574 -47.511006 9.206809 20.971271 62.716098 2.962756 -1.070103 -23.199904 1.594900 -7.965800 -22.610100 -8.098643 -0.575328 -0.098842 26.767744 10.661728 -43.138677 -8.666022 -21.436339 63.666828 -0.939137 -9.392112 -29.213511 -0.003100 0.358200 -0.984200 -0.038953 -0.321205 16.980151 4.878217 -0.807669 11.243156 -2.671000 0.331694 -19.934125 -8.288631 -0.371220 -23.084107 13.842773 1.245136 -9.552902 2.878000 0.401300 -1.500100 0.851763 -10.945045 2.426470 -59.745083 34.066054 -42.468764 32.026881 -32.759592 -8.420271 1.628249 1.369101 2.152795 17.282011 -25.340372 -7.305300 -7.125000 0.000000 0.000000 -8.579100 2.262500 8.328700 -1.432217 9.752966 1.445274 54.855227 -46.477879 -16.223397 -23.516062 24.498260 -7.316378 0.391350 -1.575941 29.485006 -13.268420 -66.460916 13.178700 7.125000 0.000000 0.000000 100.556500 75.996200 115.049400 
10.672115 15.828014 27.076564 -177.695735 0.549525 -162.036944 6.916586 -0.670266 -1.949951 -21.532734 -2.356370 -49.394566 9.697266 21.387294 64.005870 3.118545 -1.645981 -23.380029 1.463000 -7.644200 -21.638600 -8.333007 -0.506525 -0.218027 26.940888 11.134737 -45.196246 -9.165509 -21.940428 65.152935 -1.008230 -9.429770 -29.547002 -0.000100 -0.065400 0.179700 -0.351518 -0.106104 17.607769 5.626686 -0.599537 9.585563 -2.628667 0.400083 -20.182154 -8.653271 -0.573575 -22.959007 14.138235 1.094910 -10.069459 3.055000 0.334200 -1.704200 0.616436 -10.708422 2.527133 -62.075465 32.438924 -41.071875 31.693327 -32.479168 -8.336550 1.644013 1.307823 2.323776 17.348746 -26.629401 -7.637200 -7.125000 0.000000 0.000000 -8.651800 1.002300 8.598300 -1.344753 9.492632 1.874490 57.392805 -44.700896 -15.878345 -23.212979 24.156682 -7.193442 0.409282 -1.524010 29.495382 -12.831162 -66.778144 12.804000 7.125000 0.000000 0.000000 101.460900 75.765400 116.191300 
